<svg xmlns="http://www.w3.org/2000/svg" viewBox="0 0 73.11 73.11"><defs><style>.cls-1{fill:#519782;}.cls-2{fill:#fafcfb;}.cls-3{fill:#f9fbfb;}.cls-4{fill:#f8fbfa;}.cls-5{fill:#f8fafa;}.cls-6{fill:#f7faf9;}.cls-7{fill:#fdfdfd;}.cls-8{fill:#4a927c;}.cls-9{fill:#eef4f3;}.cls-10{fill:#4e9580;}</style></defs><g id="Layer_2" data-name="Layer 2"><g id="Layer_1-2" data-name="Layer 1"><circle class="cls-1" cx="36.56" cy="36.56" r="36.56"/><path class="cls-2" d="M21.17,56.65a2,2,0,0,1-2-.71,3.59,3.59,0,0,1-.57-.88c-.08-.2-.23-.2-.4-.18s-.13.19-.13.3c0,.27,0,.54,0,.81a.71.71,0,0,0,.24.69H17.24a12.22,12.22,0,0,0,0-3.82c.72,0,1.44,0,2.16,0a.93.93,0,0,1,.92.84,1,1,0,0,1-.77,1c-.22.08-.3.15-.16.38s.25.45.39.66A1.7,1.7,0,0,0,21.17,56.65ZM18,53.84v.45c0,.12,0,.21.17.21a2.57,2.57,0,0,0,1-.08.62.62,0,0,0,.44-.61.57.57,0,0,0-.48-.56,2.3,2.3,0,0,0-.45,0C18,53.19,18,53.19,18,53.84Z"/><path class="cls-3" d="M48.32,52.84h.89a4.14,4.14,0,0,0-.09,1.4c0,.15.1.16.21.16h1.36c.09,0,.21,0,.21-.12a5.23,5.23,0,0,0-.07-1.42h.89a12.87,12.87,0,0,0,0,3.82h-1a4.13,4.13,0,0,0,.14-1.75c0-.13-.11-.12-.2-.12H49.33c-.09,0-.21,0-.21.12a8.22,8.22,0,0,0,0,1.57c0,.06.11.09.08.18h-1a1,1,0,0,0,.17-.71V53.35A.85.85,0,0,0,48.32,52.84Z"/><path class="cls-2" d="M23.38,56.7a.72.72,0,0,0,.24-.62q0-1.28,0-2.55a1.25,1.25,0,0,0-.15-.71c1,.06,1.91-.18,2.79.3a1.73,1.73,0,0,1,1,1.72,1.77,1.77,0,0,1-1.17,1.65A2.88,2.88,0,0,1,25,56.7Zm1.41-3.5c-.58,0-.49,0-.49.48s0,1.23,0,1.85c0,.87,0,.87.89.77a1.31,1.31,0,0,0,1.29-1.07C26.76,54,26.1,53.21,24.79,53.2Z"/><path class="cls-2" d="M58.61,54.53l.44.18a1,1,0,0,1,.12,1.68,1.49,1.49,0,0,1-.81.28c-.59,0-1.18,0-1.71,0a33,33,0,0,0,0-3.85,7.24,7.24,0,0,1,2,.11.79.79,0,0,1,.62.68.76.76,0,0,1-.44.77Zm-1.26,1v.59c0,.13,0,.21.18.2a3.08,3.08,0,0,0,.8,0,.72.72,0,0,0,.59-.85c-.09-.51-.59-.78-1.35-.69-.44.05-.13.43-.22.64A.65.65,0,0,0,57.35,55.54Zm.37-2.35c-.3-.09-.41.08-.37.41a5.8,5.8,0,0,1,0,.59c0,.1,0,.2.13.2a1.52,1.52,0,0,0,.82-.11.56.56,0,0,0,.29-.53.52.52,0,0,0-.34-.48A1.1,1.1,0,0,0,57.72,53.19Z"/><path class="cls-4" d="M32.86,53.74c-.1,0-.13-.08-.19-.13a1.43,1.43,0,0,0-1.48-.36,1.29,1.29,0,0,0-.84,1.15,1.51,1.51,0,0,0,1.72,1.93c.25,0,.41-.1.36-.4s.13-.73-.23-1h1.09a.93.93,0,0,0-.06,1.1c.05.09,0,.12-.07.17a2.46,2.46,0,0,1-2.68.29A2,2,0,0,1,31.8,52.8a2.53,2.53,0,0,1,.48.07C32.92,53.08,32.88,53,32.86,53.74Z"/><path class="cls-5" d="M14.57,56.68H13.5a14.88,14.88,0,0,0,0-3.83c.74,0,1.49,0,2.23,0a.89.89,0,0,1,.91.81,1,1,0,0,1-.67,1,3,3,0,0,1-1.38.2c-.24,0-.32.08-.31.32s0,.61,0,.91A.53.53,0,0,0,14.57,56.68Zm-.26-2.81v.48c0,.09,0,.17.12.17a2.55,2.55,0,0,0,1.16-.14.59.59,0,0,0,.35-.65.5.5,0,0,0-.49-.49,2.69,2.69,0,0,0-.49,0C14.31,53.2,14.31,53.21,14.31,53.87Z"/><path class="cls-6" d="M53.4,52.85a.9.9,0,0,0-.12.52c0,.65,0,1.31,0,2a.89.89,0,0,0,.92,1,1,1,0,0,0,1-1c0-.7,0-1.4,0-2.1a.59.59,0,0,0-.17-.4h.77a1.32,1.32,0,0,0-.13.75,17.53,17.53,0,0,1,0,1.92,1.25,1.25,0,0,1-.93,1.11,2,2,0,0,1-1.24,0,1.19,1.19,0,0,1-.87-1.06c-.07-.69,0-1.38,0-2.06a.93.93,0,0,0-.17-.65Z"/><path class="cls-6" d="M39.41,56.68H38.29a2.11,2.11,0,0,0,.71-1c.46-1,1-1.89,1.4-2.89.06-.17.14-.13.21,0a1.42,1.42,0,0,1,.12.25L42,56a1.14,1.14,0,0,0,.58.68H41.33c.25-.31,0-.57-.06-.86-.14-.57-.47-.72-1-.69-.39,0-.64.1-.75.49a3.75,3.75,0,0,1-.19.41A.48.48,0,0,0,39.41,56.68Zm1-2.87c-.14.27-.25.51-.37.75s0,.19.1.19.47.06.6,0-.09-.31-.15-.48A4.32,4.32,0,0,0,40.37,53.81Z"/><path class="cls-6" d="M35.47,53.35c0-.41.18-.55.57-.53.81,0,1.61,0,2.41,0,.1,0,.25,0,.27.08a.57.57,0,0,1-.09.36c-.08.13-.16,0-.24,0a3.55,3.55,0,0,0-.8,0c-.16,0-.15.12-.15.22v2.83a.6.6,0,0,0,.22.42H36.59a.84.84,0,0,0,.17-.61c0-.86,0-1.72,0-2.59,0-.21,0-.28-.27-.27A2.64,2.64,0,0,0,35.47,53.35Z"/><path class="cls-4" d="M43,56.69a14,14,0,0,0,0-3.83,6.58,6.58,0,0,1,1,0,.53.53,0,0,0-.19.5c0,.87,0,1.75,0,2.62,0,.24,0,.34.3.32a5.93,5.93,0,0,1,.73,0,1.18,1.18,0,0,0,1-.34c-.14.62-.3.75-.86.75Z"/><path class="cls-5" d="M35,56.68H33.9a.72.72,0,0,0,.21-.61c0-.9,0-1.79,0-2.69a.55.55,0,0,0-.21-.53H35a.51.51,0,0,0-.21.48c0,1,0,1.89,0,2.83A.67.67,0,0,0,35,56.68Z"/><path class="cls-5" d="M29,52.85a.54.54,0,0,0-.23.55V56c0,.23,0,.47.24.66H27.91a.75.75,0,0,0,.2-.61c0-.9,0-1.79,0-2.69a.57.57,0,0,0-.18-.53Z"/><path class="cls-7" d="M22.48,32.59q0-3.9,0-7.8a.52.52,0,0,1,.3-.52l13.49-7.79a.51.51,0,0,1,.6,0l13.49,7.79a.49.49,0,0,1,.29.49q0,7.8,0,15.6a.49.49,0,0,1-.27.5L36.86,48.65a.54.54,0,0,1-.63,0q-6.72-3.89-13.47-7.76a.52.52,0,0,1-.29-.52Q22.49,36.48,22.48,32.59Zm26.58,0q0-3.43,0-6.89a.49.49,0,0,0-.28-.49L36.84,18.29a.5.5,0,0,0-.57,0q-6,3.47-11.92,6.89a.53.53,0,0,0-.31.51q0,6.89,0,13.75a.51.51,0,0,0,.28.5q6,3.44,12,6.9a.5.5,0,0,0,.57,0q6-3.47,11.95-6.9a.49.49,0,0,0,.28-.5Q49.06,36,49.06,32.58Z"/><path class="cls-8" d="M49.06,32.58q0,3.44,0,6.86a.49.49,0,0,1-.28.5q-6,3.44-11.95,6.9a.5.5,0,0,1-.57,0q-6-3.47-12-6.9a.51.51,0,0,1-.28-.5q0-6.87,0-13.75a.53.53,0,0,1,.31-.51q6-3.43,11.92-6.89a.5.5,0,0,1,.57,0L48.79,25.2a.49.49,0,0,1,.28.49Q49.06,29.14,49.06,32.58Zm-13.67-2.1-.09-.06c0-.13.19-.29,0-.37s-.16.16-.21.26a2.35,2.35,0,0,1-.93,1,6,6,0,0,1-1.39.57,2,2,0,0,0-1.48,1.33,1.27,1.27,0,0,1-.89.88.48.48,0,0,1-.62-.47,1.34,1.34,0,0,1,.14-.5,12.28,12.28,0,0,1,1-2,.79.79,0,0,0,0-.87c0-.06-.07-.17-.17-.13s-.05.14,0,.21a.77.77,0,0,1-.05.8l-.47.78c0,.07-.07.15-.18.12a4.1,4.1,0,0,1-.77-.22l.19-.05c.07,0,.17,0,.14-.15s-.12-.05-.18-.05l-.18,0c-1.08.2-1.94-.44-3-.75l2.7-.86a18.9,18.9,0,0,1,5.58-1c1.42,0,2.84.11,4.26.2A22.83,22.83,0,0,0,44,29c.38-.06.76-.14,1.13-.21.1,0,.23,0,.21-.15s-.17,0-.26-.06l-.07,0a17.48,17.48,0,0,1-3.46.4c-1.75,0-3.49-.17-5.24-.25a18.09,18.09,0,0,0-4.76.3,35.13,35.13,0,0,0-4.4,1.27,2.18,2.18,0,0,1-2.22-.19L24.78,30c-.08,0-.17-.14-.24,0s.06.16.14.2l.3.17a21,21,0,0,0,4.73,1.69c.41.09.41.09.25.49-.1.23-.22.44-.3.67a.75.75,0,0,0,.21.89.8.8,0,0,0,.94,0,1.88,1.88,0,0,0,.76-1,1.43,1.43,0,0,1,1-1l.66-.22a4.5,4.5,0,0,0,1.47-.73,6.26,6.26,0,0,1,1.22-.73c1.37-.66,2.88-.5,4.32-.75a.49.49,0,0,1,.54.35.52.52,0,0,1-.2.62,1.9,1.9,0,0,1-.64.27,7,7,0,0,0-1.79.57c-.6.34-.64.73-.13,1.18A6,6,0,0,0,40.72,34a7.55,7.55,0,0,0,1.71.09,3,3,0,0,1,1.24.1c.19.06.35.15.38.37a.48.48,0,0,1-.28.45,2.38,2.38,0,0,1-.68.28,6.79,6.79,0,0,1-2.87.14A10,10,0,0,1,39,35.18c-.08,0-.2-.1-.24,0s.11.15.2.17a3.64,3.64,0,0,0,.47.14c.41.07.82.15,1.24.19.21,0,.24.08.13.25a.93.93,0,0,1-.56.39,5,5,0,0,1-1.39.07c-.08,0-.22-.06-.24.06s.14.13.23.13H40a.89.89,0,0,1-.66.36,6.17,6.17,0,0,1-1.29.07c-.09,0-.24-.06-.24.1s.14.09.23.09h.73a2.12,2.12,0,0,1-1.56.27c-1.42-.25-2.83-.53-4.25-.79a.36.36,0,0,1-.21-.11c-.39-.52-.57-.55-1.07-.19-.13.09-.18.11-.26,0a.71.71,0,0,0-1.18-.22.46.46,0,0,1-.4.13c-.65-.06-1.3-.13-1.95-.17-1.15,0-2.31-.1-3.46,0-.09,0-.22,0-.21.12s.13.07.21.07c.33,0,.65,0,1,0s.32,0,.34.27.23.37.46.42a.9.9,0,0,0,1-.28,1,1,0,0,1,1-.33l1,.1c.18,0,.24.08.27.27a1,1,0,0,0,1.47.67c.18-.11.25-.12.4,0a.81.81,0,0,0,1.36-.22c.1-.25.22-.26.45-.22,1.18.24,2.37.46,3.56.69a3,3,0,0,0,2.66-.43.31.31,0,0,1,.16-.06A4,4,0,0,0,41,35.94a.3.3,0,0,1,.32-.19,5.37,5.37,0,0,0,1.83-.26,3.45,3.45,0,0,1,2-.43A.11.11,0,0,0,45.3,35c0-.09-.07-.11-.14-.11h-.74c-.07,0-.15,0-.17-.11-.14-.63-.26-.73-.9-.81a10.3,10.3,0,0,0-1.47,0,5.5,5.5,0,0,1-3.74-1.41c-.39-.33-.34-.61.12-.86a5.19,5.19,0,0,1,1.09-.37c.36-.1.73-.17,1.08-.29A.79.79,0,0,0,41,30a.77.77,0,0,0-1-.51,5.83,5.83,0,0,1-.73.1A9.36,9.36,0,0,0,35.39,30.48Z"/><path class="cls-9" d="M35.39,30.48a9.36,9.36,0,0,1,3.89-.87,5.83,5.83,0,0,0,.73-.1A.77.77,0,0,1,41,30a.79.79,0,0,1-.55,1c-.35.12-.72.19-1.08.29a5.19,5.19,0,0,0-1.09.37c-.46.25-.51.53-.12.86a5.5,5.5,0,0,0,3.74,1.41,10.3,10.3,0,0,1,1.47,0c.64.08.76.18.9.81,0,.13.1.1.17.11h.74c.07,0,.15,0,.14.11a.11.11,0,0,1-.14.08,3.45,3.45,0,0,0-2,.43,5.37,5.37,0,0,1-1.83.26.3.3,0,0,0-.32.19,4,4,0,0,1-1.47,1.18.31.31,0,0,0-.16.06,3,3,0,0,1-2.66.43c-1.19-.23-2.38-.45-3.56-.69-.23,0-.35,0-.45.22a.81.81,0,0,1-1.36.22c-.15-.16-.22-.15-.4,0a1,1,0,0,1-1.47-.67c0-.19-.09-.26-.27-.27l-1-.1a1,1,0,0,0-1,.33.9.9,0,0,1-1,.28c-.23,0-.44-.17-.46-.42s-.14-.28-.34-.27-.65,0-1,0c-.08,0-.2,0-.21-.07s.12-.12.21-.12c1.15-.05,2.31,0,3.46,0,.65,0,1.3.11,1.95.17a.46.46,0,0,0,.4-.13.71.71,0,0,1,1.18.22c.08.16.13.14.26,0,.5-.36.68-.33,1.07.19a.36.36,0,0,0,.21.11c1.42.26,2.83.54,4.25.79a2.12,2.12,0,0,0,1.56-.27h-.73c-.09,0-.23,0-.23-.09s.15-.1.24-.1A6.17,6.17,0,0,0,39.37,37a.89.89,0,0,0,.66-.36h-1.2c-.09,0-.25,0-.23-.13s.16-.06.24-.06a5,5,0,0,0,1.39-.07.93.93,0,0,0,.56-.39c.11-.17.08-.22-.13-.25-.42,0-.83-.12-1.24-.19a3.64,3.64,0,0,1-.47-.14c-.09,0-.25,0-.2-.17s.16,0,.24,0a10,10,0,0,0,1.23.28,6.79,6.79,0,0,0,2.87-.14,2.38,2.38,0,0,0,.68-.28.48.48,0,0,0,.28-.45c0-.22-.19-.31-.38-.37a3,3,0,0,0-1.24-.1A7.55,7.55,0,0,1,40.72,34,6,6,0,0,1,38,32.69c-.51-.45-.47-.84.13-1.18A7,7,0,0,1,40,30.94a1.9,1.9,0,0,0,.64-.27.52.52,0,0,0,.2-.62.49.49,0,0,0-.54-.35c-1.44.25-3,.09-4.32.75a6.26,6.26,0,0,0-1.22.73,4.5,4.5,0,0,1-1.47.73l-.66.22a1.43,1.43,0,0,0-1,1,1.88,1.88,0,0,1-.76,1,.8.8,0,0,1-.94,0,.75.75,0,0,1-.21-.89c.08-.23.2-.44.3-.67.16-.4.16-.4-.25-.49A21,21,0,0,1,25,30.39l-.3-.17c-.08,0-.21-.08-.14-.2s.16,0,.24,0l.13.07a2.18,2.18,0,0,0,2.22.19A35.13,35.13,0,0,1,31.53,29a18.09,18.09,0,0,1,4.76-.3c1.75.08,3.49.29,5.24.25a17.48,17.48,0,0,0,3.46-.4l.07,0c.09,0,.23-.1.26.06s-.11.13-.21.15c-.37.07-.75.15-1.13.21a22.83,22.83,0,0,1-5.16.11c-1.42-.09-2.84-.21-4.26-.2a18.9,18.9,0,0,0-5.58,1l-2.7.86c1,.31,1.9.95,3,.75l.18,0c.06,0,.15,0,.18.05s-.07.13-.14.15l-.19.05a4.1,4.1,0,0,0,.77.22c.11,0,.14,0,.18-.12l.47-.78a.77.77,0,0,0,.05-.8c0-.07-.1-.16,0-.21s.13.07.17.13a.79.79,0,0,1,0,.87,12.28,12.28,0,0,0-1,2,1.34,1.34,0,0,0-.14.5.48.48,0,0,0,.62.47,1.27,1.27,0,0,0,.89-.88,2,2,0,0,1,1.48-1.33,6,6,0,0,0,1.39-.57,2.35,2.35,0,0,0,.93-1c0-.1,0-.32.21-.26s0,.24,0,.37,0,.07,0,.08A.08.08,0,0,0,35.39,30.48Zm-5,6.79a.88.88,0,0,0,.47-.13.82.82,0,0,0,.36-.75.32.32,0,0,0-.32-.27.61.61,0,0,0-.69.35c-.06.14-.12.24-.25,0a.18.18,0,0,0-.25,0c-.1,0,0,.16,0,.25A.73.73,0,0,0,30.42,37.27Zm2.2-.5a.42.42,0,0,0-.28-.4.45.45,0,0,0-.5.17c-.08.08-.09.22-.21.27s-.2-.25-.24,0a.44.44,0,0,0,.2.48.66.66,0,0,0,.7,0A.67.67,0,0,0,32.62,36.77Zm-5.39-.49-.09,0-.84,0c-.12,0-.31-.1-.34.11s.11.3.28.36A.86.86,0,0,0,27.23,36.28Z"/><path class="cls-10" d="M30.42,37.27a.73.73,0,0,1-.71-.56c0-.09-.07-.2,0-.25a.18.18,0,0,1,.25,0c.13.2.19.1.25,0a.61.61,0,0,1,.69-.35.32.32,0,0,1,.32.27.82.82,0,0,1-.36.75A.88.88,0,0,1,30.42,37.27Z"/><path class="cls-1" d="M32.62,36.77a.67.67,0,0,1-.33.58.66.66,0,0,1-.7,0,.44.44,0,0,1-.2-.48c0-.28.16,0,.24,0s.13-.19.21-.27a.45.45,0,0,1,.5-.17A.42.42,0,0,1,32.62,36.77Z"/><path class="cls-1" d="M27.23,36.28a.86.86,0,0,1-1,.41c-.17-.06-.3-.17-.28-.36s.22-.11.34-.11l.84,0Z"/><path class="cls-8" d="M35.39,30.48a.08.08,0,0,1-.11,0s0-.06,0-.08Z"/></g></g></svg>